<?xml version="1.0" standalone="no"?>
<!DOCTYPE svg PUBLIC "-//W3C//DTD SVG 20010904//EN"
 "http://www.w3.org/TR/2001/REC-SVG-20010904/DTD/svg10.dtd">
<svg version="1.0" xmlns="http://www.w3.org/2000/svg"
 width="236.000000pt" height="69.000000pt" viewBox="0 0 236.000000 69.000000"
 preserveAspectRatio="xMidYMid meet">

<g transform="translate(0.000000,69.000000) scale(0.100000,-0.100000)"
fill="#702a75" stroke="none">
<path d="M92 631 c-10 -6 -7 -15 16 -37 23 -23 31 -43 36 -87 5 -39 13 -61 27
-70 18 -13 18 -14 -6 -25 -16 -7 -25 -20 -25 -34 -1 -13 -7 -34 -15 -48 -21
-37 -18 -50 13 -50 15 -1 38 -7 52 -15 14 -8 41 -14 60 -14 19 0 46 6 60 14
32 18 108 18 140 0 25 -14 100 -21 100 -9 0 3 -20 28 -44 54 -23 27 -60 83
-80 124 -47 95 -124 169 -198 191 -57 17 -116 19 -136 6z"/>
<path d="M680 571 l0 -59 -38 21 c-34 18 -43 19 -70 8 -54 -23 -77 -102 -47
-161 26 -51 88 -66 134 -34 22 16 24 16 33 0 5 -9 18 -16 30 -16 18 0 20 4 14
38 -3 20 -6 88 -6 150 l0 112 -25 0 c-24 0 -25 -3 -25 -59z m-18 -88 c26 -23
24 -78 -4 -97 -30 -21 -54 -20 -78 4 -57 57 22 147 82 93z"/>
<path d="M790 605 c0 -20 5 -25 25 -25 20 0 25 5 25 25 0 20 -5 25 -25 25 -20
0 -25 -5 -25 -25z"/>
<path d="M1580 493 c0 -95 4 -143 12 -151 13 -13 74 -17 81 -4 8 13 -7 37 -23
37 -12 0 -16 23 -20 125 -5 120 -6 125 -27 128 -23 3 -23 3 -23 -135z"/>
<path d="M1753 534 c-46 -23 -69 -76 -54 -125 36 -119 211 -100 211 23 0 52
-21 85 -66 104 -42 18 -51 17 -91 -2z m91 -50 c24 -24 20 -80 -6 -98 -12 -9
-30 -16 -39 -16 -30 0 -55 42 -50 87 2 20 31 43 56 43 13 0 31 -7 39 -16z"/>
<path d="M2060 543 c-8 -3 -25 -15 -37 -26 l-23 -20 0 21 c0 15 -6 22 -20 22
-19 0 -20 -7 -20 -105 0 -105 0 -105 25 -105 23 0 24 3 27 73 3 70 4 72 35 87
22 10 33 22 33 38 0 12 -1 22 -2 21 -2 0 -10 -3 -18 -6z"/>
<path d="M2175 541 c-29 -13 -61 -52 -69 -83 -8 -35 14 -90 45 -112 36 -25
102 -21 136 8 24 21 26 25 11 31 -9 4 -30 -1 -47 -10 -27 -13 -36 -14 -59 -3
-15 7 -28 21 -30 31 -3 15 6 17 77 17 44 0 82 3 84 8 8 15 -13 69 -36 90 -27
25 -81 36 -112 23z m79 -47 c31 -31 20 -44 -39 -44 -48 0 -55 3 -55 20 0 37
65 54 94 24z"/>
<path d="M790 435 l0 -105 25 0 25 0 0 105 0 105 -25 0 -25 0 0 -105z"/>
<path d="M883 528 c2 -7 19 -55 38 -105 31 -86 35 -93 60 -93 24 0 29 8 63 96
20 53 36 101 36 106 0 5 -10 8 -22 6 -17 -2 -26 -18 -45 -81 -13 -43 -27 -76
-31 -73 -5 3 -19 39 -32 80 -21 67 -26 76 -48 76 -15 0 -22 -5 -19 -12z"/>
<path d="M1126 473 c15 -37 32 -84 39 -103 9 -28 18 -36 41 -38 28 -3 30 -1
66 103 37 105 37 105 14 105 -19 0 -25 -10 -40 -57 -37 -118 -35 -117 -65 -28
-24 71 -31 80 -54 83 l-27 3 26 -68z"/>
<path d="M1330 535 c0 -2 18 -50 40 -105 32 -80 38 -104 30 -125 -6 -15 -17
-25 -30 -25 -13 0 -20 -7 -20 -20 0 -15 7 -20 28 -20 16 0 36 6 45 13 14 10
107 251 107 278 0 6 -10 9 -21 7 -18 -2 -26 -17 -43 -75 -12 -39 -24 -74 -27
-77 -3 -3 -18 30 -33 74 -25 70 -31 80 -52 80 -13 0 -24 -2 -24 -5z"/>
<path d="M48 228 c-27 -12 -48 -28 -48 -35 0 -18 14 -16 60 7 22 11 51 20 65
20 14 0 43 -9 65 -20 22 -11 51 -20 65 -20 14 0 43 9 65 20 22 11 51 20 65 20
14 0 42 -9 62 -20 47 -25 84 -25 137 -1 23 11 49 22 59 25 22 7 13 26 -11 26
-9 -1 -35 -9 -57 -20 -51 -24 -63 -24 -116 0 -56 25 -84 25 -153 -1 l-56 -22
-49 22 c-62 26 -93 26 -153 -1z"/>
<path d="M998 193 c7 -3 16 -2 19 1 4 3 -2 6 -13 5 -11 0 -14 -3 -6 -6z"/>
<path d="M1278 193 c6 -2 18 -2 25 0 6 3 1 5 -13 5 -14 0 -19 -2 -12 -5z"/>
<path d="M1788 193 c7 -3 16 -2 19 1 4 3 -2 6 -13 5 -11 0 -14 -3 -6 -6z"/>
<path d="M1963 193 c9 -2 23 -2 30 0 6 3 -1 5 -18 5 -16 0 -22 -2 -12 -5z"/>
<path d="M2043 193 c9 -2 23 -2 30 0 6 3 -1 5 -18 5 -16 0 -22 -2 -12 -5z"/>
<path d="M2276 191 c-4 -5 3 -7 14 -4 23 6 26 13 6 13 -8 0 -17 -4 -20 -9z"/>
<path d="M53 167 c-29 -12 -53 -28 -53 -34 0 -18 21 -16 73 7 48 22 84 20 122
-6 27 -19 96 -17 124 3 31 21 101 21 132 0 32 -23 91 -21 136 3 21 11 46 20
56 20 11 0 17 5 14 13 -6 16 -63 11 -90 -8 -30 -21 -63 -19 -125 7 -53 22 -54
22 -100 4 -68 -26 -105 -30 -139 -13 -52 27 -94 28 -150 4z"/>
<path d="M1958 163 c6 -2 18 -2 25 0 6 3 1 5 -13 5 -14 0 -19 -2 -12 -5z"/>
<path d="M1788 153 c7 -3 16 -2 19 1 4 3 -2 6 -13 5 -11 0 -14 -3 -6 -6z"/>
<path d="M1368 143 c6 -2 18 -2 25 0 6 3 1 5 -13 5 -14 0 -19 -2 -12 -5z"/>
<path d="M1698 143 c6 -2 18 -2 25 0 6 3 1 5 -13 5 -14 0 -19 -2 -12 -5z"/>
<path d="M2278 128 c5 -5 16 -8 23 -6 8 3 3 7 -10 11 -17 4 -21 3 -13 -5z"/>
<path d="M998 123 c7 -3 16 -2 19 1 4 3 -2 6 -13 5 -11 0 -14 -3 -6 -6z"/>
<path d="M1148 123 c7 -3 16 -2 19 1 4 3 -2 6 -13 5 -11 0 -14 -3 -6 -6z"/>
<path d="M1458 123 c6 -2 18 -2 25 0 6 3 1 5 -13 5 -14 0 -19 -2 -12 -5z"/>
<path d="M1968 123 c6 -2 18 -2 25 0 6 3 1 5 -13 5 -14 0 -19 -2 -12 -5z"/>
</g>
</svg>
